<svg width="48" height="48" fill="none" xmlns="http://www.w3.org/2000/svg"><circle cx="24" cy="24" r="24" fill="#fff"/><path d="M34.563 16.89h-5.891v-1.828a3.858 3.858 0 00-5.89-3.28 3.856 3.856 0 00-5.891 3.28v1.829h-4.266a.61.61 0 00-.61.609v18.688a.61.61 0 00.61.609h15.438a.625.625 0 00.07-.004l.017-.003a.673.673 0 00.052-.01l.008-.001 3.102-.776 3.103.776c.37.103.767-.207.757-.592V17.5a.61.61 0 00-.61-.61zm-7.11-1.828v1.829H24.61v-1.828a3.84 3.84 0 00-.855-2.42 2.64 2.64 0 013.7 2.42zm-4.672-1.685c.395.473.61 1.07.61 1.685v1.829h-1.22v-1.828c0-.616.216-1.213.61-1.686zm-4.672 1.685a2.638 2.638 0 013.7-2.418 3.84 3.84 0 00-.856 2.418v1.829H18.11v-1.828zm-4.875 20.516V18.11h3.657v3.453a.61.61 0 001.218 0V18.11h5.282v3.453a.61.61 0 001.218 0V18.11h2.844v17.47H13.234zm20.72-.171l-2.494-.623a.61.61 0 00-.295 0l-2.493.623V18.109h2.031v3.453a.61.61 0 001.219 0V18.11h2.031v17.298z" fill="#201D54"/><path d="M31.313 25.016a.61.61 0 00-.61.609v7.313a.61.61 0 001.219 0v-7.313a.61.61 0 00-.61-.61zm-6.931-1.446l-8.125 8.124c-.568.551.31 1.43.861.862l8.125-8.125a.61.61 0 00-.861-.862zm-1.194 4.696a2.235 2.235 0 100 4.47 2.235 2.235 0 000-4.47zm0 3.25a1.015 1.015 0 110-2.03 1.015 1.015 0 010 2.03zm-4.875-3.656a2.235 2.235 0 100-4.47 2.235 2.235 0 000 4.47zm0-3.25a1.016 1.016 0 110 2.031 1.016 1.016 0 010-2.032z" fill="#201D54"/></svg>