<svg width="27" height="27" viewBox="0 0 27 27" fill="none" xmlns="http://www.w3.org/2000/svg">
<path d="M26.4676 13.64C26.0491 13.1 25.4433 12.7575 24.7684 12.6748C24.0984 12.587 23.442 12.7794 22.9206 13.1878L16.9082 17.8502C16.3261 18.3092 15.5937 18.5623 14.8495 18.5623H13.4017C14.5002 17.4891 15.187 15.9974 15.187 14.3454C15.187 13.8796 14.809 13.5016 14.3433 13.5016L5.06234 13.4999V12.6562C5.06234 12.1905 4.68435 11.8125 4.21862 11.8125H0.843724C0.377988 11.8125 0 12.1905 0 12.6562V24.4684C0 24.9341 0.377988 25.3121 0.843724 25.3121H4.21862C4.68435 25.3121 5.06234 24.9341 5.06234 24.4684V23.6246H16.3007C17.2187 23.6246 18.1316 23.3108 18.8758 22.7387L26.012 17.1887C26.552 16.7719 26.8962 16.1695 26.9806 15.4928C27.0633 14.8229 26.8793 14.1631 26.4676 13.64ZM3.37489 23.6246H1.68745V13.4999H3.37489V23.6246ZM25.3066 15.2836C25.278 15.5097 25.1632 15.7122 24.9793 15.8556L17.8448 21.404C17.3976 21.7482 16.8475 21.9372 16.3007 21.9372H5.06234V15.1874L13.4152 15.1891C13.0237 17.1111 11.3177 18.5623 9.28096 18.5623C8.81522 18.5623 8.43724 18.9403 8.43724 19.406C8.43724 19.8718 8.81522 20.2497 9.28096 20.2497H14.8495C15.9717 20.2497 17.0736 19.8667 17.9494 19.1782L23.9618 14.5175C24.1322 14.3825 24.3482 14.3285 24.5625 14.3487C24.7903 14.3774 24.9928 14.4922 25.1379 14.6795C25.2729 14.8516 25.332 15.0659 25.3066 15.2836Z" fill="#201D54"/>
<path d="M22.7805 1.68787H4.21854C3.75281 1.68787 3.37482 2.06585 3.37482 2.53159V9.28138C3.37482 9.74712 3.75281 10.1251 4.21854 10.1251C4.68428 10.1251 5.06226 9.74712 5.06226 9.28138V3.37531H10.1246V7.59393C10.1246 7.90611 10.2967 8.19129 10.5701 8.33641C10.8451 8.4849 11.1759 8.46803 11.4374 8.29591L13.4995 6.92064L15.5633 8.29591C15.705 8.39041 15.867 8.43766 16.0307 8.43766C16.1674 8.43766 16.304 8.40391 16.4289 8.33641C16.7023 8.19129 16.8744 7.90611 16.8744 7.59393V3.37531H21.9367V10.9688C21.9367 11.4346 22.3147 11.8126 22.7805 11.8126C23.2462 11.8126 23.6242 11.4346 23.6242 10.9688V2.53159C23.6242 2.06585 23.2462 1.68787 22.7805 1.68787ZM15.187 6.01617L13.9669 5.20451C13.6834 5.0172 13.3139 5.0172 13.0304 5.20451L11.8121 6.01617V3.37531H15.187V6.01617Z" fill="#201D54"/>
</svg>
