<svg width="48" height="48" fill="none" xmlns="http://www.w3.org/2000/svg"><circle cx="24" cy="24" r="24" fill="#fff"/><g clip-path="url(#clip0)" fill="#201D54"><path d="M37.703 27.147L36.494 24l1.208-3.149a.86.86 0 00-.262-.977l-2.619-2.122-.53-3.331a.862.862 0 00-.713-.714l-3.332-.53-2.122-2.619a.862.862 0 00-.977-.261L24 11.506l-3.149-1.208a.855.855 0 00-.975.262l-2.122 2.619-3.332.53a.862.862 0 00-.713.713l-.53 3.332-2.62 2.122a.86.86 0 00-.26.975L11.505 24l-1.208 3.149a.86.86 0 00.262.975l2.62 2.122.529 3.332a.862.862 0 00.713.713l3.332.53 2.122 2.62c.236.29.63.396.977.26L24 36.495l3.149 1.208a.86.86 0 00.977-.261l2.122-2.62 3.331-.53a.862.862 0 00.714-.713l.53-3.332 2.619-2.122a.863.863 0 00.261-.977zm-2.935-2.84l1.102 2.873-2.392 1.936a.857.857 0 00-.308.534l-.483 3.038-3.04.484a.857.857 0 00-.532.308l-1.933 2.392-2.872-1.103a.857.857 0 00-.617 0l-2.873 1.103-1.936-2.392a.857.857 0 00-.534-.308l-3.038-.484-.484-3.039a.857.857 0 00-.307-.533l-2.393-1.934 1.103-2.872a.86.86 0 00-.002-.618l-1.1-2.874 2.392-1.936a.857.857 0 00.307-.533l.484-3.04 3.039-.482a.857.857 0 00.533-.308l1.934-2.39 2.872 1.102a.863.863 0 00.616 0l2.872-1.103 1.937 2.392a.857.857 0 00.533.308l3.039.484.483 3.038c.033.21.143.4.308.534l2.392 1.936-1.102 2.872a.863.863 0 000 .616z"/><path d="M21.42 17.12a2.583 2.583 0 00-2.58 2.58 2.583 2.583 0 002.58 2.58A2.583 2.583 0 0024 19.7a2.583 2.583 0 00-2.58-2.58zm0 3.44a.86.86 0 110-1.72.86.86 0 010 1.72zm5.159 5.16a2.583 2.583 0 00-2.58 2.58 2.583 2.583 0 002.58 2.58 2.583 2.583 0 002.58-2.58 2.583 2.583 0 00-2.58-2.58zm0 3.44a.86.86 0 110-1.721.86.86 0 010 1.72zM28.8 17.282a.86.86 0 00-1.2.2L19.001 29.52a.859.859 0 101.399 1l8.599-12.039a.859.859 0 00-.2-1.199z"/></g><defs><clipPath id="clip0"><path fill="#fff" transform="translate(10.24 10.24)" d="M0 0h27.52v27.52H0z"/></clipPath></defs></svg>