<svg width="27" height="27" viewBox="0 0 27 27" fill="none" xmlns="http://www.w3.org/2000/svg">
<g clip-path="url(#clip0)">
<path d="M11.5312 15.4688H9C8.53425 15.4688 8.15625 15.0907 8.15625 14.625C8.15625 14.1592 8.53425 13.7812 9 13.7812H11.5312C11.997 13.7812 12.375 14.1592 12.375 14.625C12.375 15.0907 11.997 15.4688 11.5312 15.4688Z" fill="#201D54"/>
<path d="M11.5312 18H9.84374C8.75811 18 7.87498 17.1169 7.87498 16.0312V13.2188C7.87498 12.1331 8.75811 11.25 9.84374 11.25H11.5312C11.997 11.25 12.375 11.628 12.375 12.0938C12.375 12.5595 11.997 12.9375 11.5312 12.9375H9.84374C9.68849 12.9375 9.56249 13.0635 9.56249 13.2188V16.0312C9.56249 16.1865 9.68849 16.3125 9.84374 16.3125H11.5312C11.997 16.3125 12.375 16.6905 12.375 17.1562C12.375 17.622 11.997 18 11.5312 18Z" fill="#201D54"/>
<path d="M18.2813 18H15.4688C15.003 18 14.625 17.622 14.625 17.1562V12.0938C14.625 11.628 15.003 11.25 15.4688 11.25C15.9345 11.25 16.3125 11.628 16.3125 12.0938V16.3125H18.2813C18.747 16.3125 19.125 16.6905 19.125 17.1562C19.125 17.622 18.747 18 18.2813 18Z" fill="#201D54"/>
<path d="M23.9062 18H21.0938C20.628 18 20.25 17.622 20.25 17.1562V12.0938C20.25 11.628 20.628 11.25 21.0938 11.25C21.5595 11.25 21.9375 11.628 21.9375 12.0938V16.3125H23.9062C24.372 16.3125 24.75 16.6905 24.75 17.1562C24.75 17.622 24.372 18 23.9062 18Z" fill="#201D54"/>
<path d="M4.734 18H3.09375C2.628 18 2.25 17.622 2.25 17.1562C2.25 16.6905 2.628 16.3125 3.09375 16.3125H4.734C4.91175 16.3125 5.0625 16.119 5.0625 15.8906C5.0625 15.6623 4.91175 15.4688 4.734 15.4688H4.266C3.1545 15.4688 2.25 14.5226 2.25 13.3594C2.25 12.1961 3.1545 11.25 4.266 11.25H5.90625C6.372 11.25 6.75 11.628 6.75 12.0938C6.75 12.5595 6.372 12.9375 5.90625 12.9375H4.266C4.08825 12.9375 3.9375 13.131 3.9375 13.3594C3.9375 13.5877 4.08825 13.7812 4.266 13.7812H4.734C5.8455 13.7812 6.75 14.7274 6.75 15.8906C6.75 17.0539 5.8455 18 4.734 18Z" fill="#201D54"/>
<path d="M26.1562 14.625C25.6905 14.625 25.3125 14.247 25.3125 13.7813V4.21875C25.3125 3.44363 24.6814 2.8125 23.9062 2.8125H3.09375C2.31862 2.8125 1.6875 3.44363 1.6875 4.21875V9.28125C1.6875 9.747 1.3095 10.125 0.84375 10.125C0.378 10.125 0 9.747 0 9.28125V4.21875C0 2.51213 1.38713 1.125 3.09375 1.125H23.9062C25.6129 1.125 27 2.51213 27 4.21875V13.7813C27 14.247 26.622 14.625 26.1562 14.625Z" fill="#201D54"/>
<path d="M23.9062 25.875H3.09375C1.38713 25.875 0 24.4879 0 22.7812V19.9688C0 19.503 0.378 19.125 0.84375 19.125C1.3095 19.125 1.6875 19.503 1.6875 19.9688V22.7812C1.6875 23.5564 2.31862 24.1875 3.09375 24.1875H23.9062C24.6814 24.1875 25.3125 23.5564 25.3125 22.7812V19.9688C25.3125 19.503 25.6905 19.125 26.1562 19.125C26.622 19.125 27 19.503 27 19.9688V22.7812C27 24.4879 25.6129 25.875 23.9062 25.875Z" fill="#201D54"/>
<path d="M26.1562 6.75H0.84375C0.378 6.75 0 6.372 0 5.90625C0 5.4405 0.378 5.0625 0.84375 5.0625H26.1562C26.622 5.0625 27 5.4405 27 5.90625C27 6.372 26.622 6.75 26.1562 6.75Z" fill="#201D54"/>
</g>
<defs>
<clipPath id="clip0">
<rect width="27" height="27" fill="white"/>
</clipPath>
</defs>
</svg>
