<svg width="48" height="48" fill="none" xmlns="http://www.w3.org/2000/svg"><circle cx="24" cy="24" r="24" fill="#fff"/><g clip-path="url(#clip0)" fill="#201D54"><path d="M21.531 26.469H19a.844.844 0 010-1.688h2.531a.844.844 0 010 1.688z"/><path d="M21.531 29h-1.687a1.97 1.97 0 01-1.969-1.969V24.22a1.97 1.97 0 011.969-1.969h1.687a.844.844 0 010 1.688h-1.687a.281.281 0 00-.282.28v2.813c0 .155.127.282.282.282h1.687a.844.844 0 010 1.687zm6.75 0H25.47a.844.844 0 01-.844-.844v-5.062a.844.844 0 011.688 0v4.218h1.968a.844.844 0 010 1.688zm5.625 0h-2.812a.844.844 0 01-.844-.844v-5.062a.844.844 0 011.688 0v4.218h1.968a.844.844 0 010 1.688zm-19.172 0h-1.64a.844.844 0 010-1.688h1.64c.178 0 .329-.193.329-.421 0-.229-.151-.422-.329-.422h-.468c-1.111 0-2.016-.946-2.016-2.11 0-1.163.905-2.109 2.016-2.109h1.64a.844.844 0 010 1.688h-1.64c-.178 0-.329.193-.329.421 0 .229.151.422.329.422h.468c1.111 0 2.016.946 2.016 2.11 0 1.163-.905 2.109-2.016 2.109z"/><path d="M36.156 25.625a.844.844 0 01-.843-.844V15.22c0-.775-.632-1.406-1.407-1.406H13.094c-.775 0-1.406.63-1.406 1.406v5.062a.844.844 0 01-1.688 0V15.22a3.096 3.096 0 013.094-3.094h20.812A3.096 3.096 0 0137 15.219v9.562a.844.844 0 01-.844.844zm-2.25 11.25H13.094A3.096 3.096 0 0110 33.781V30.97a.844.844 0 011.688 0v2.812c0 .775.63 1.407 1.406 1.407h20.812a1.41 1.41 0 001.407-1.407V30.97a.844.844 0 011.687 0v2.812a3.096 3.096 0 01-3.094 3.094z"/><path d="M36.156 17.75H10.844a.844.844 0 010-1.688h25.312a.844.844 0 010 1.688z"/></g><defs><clipPath id="clip0"><path fill="#fff" transform="translate(10 11)" d="M0 0h27v27H0z"/></clipPath></defs></svg>