<svg width="48" height="48" fill="none" xmlns="http://www.w3.org/2000/svg"><path fill-rule="evenodd" clip-rule="evenodd" d="M0 24C0 10.745 10.745 0 24 0s24 10.745 24 24-10.745 24-24 24S0 37.255 0 24z" fill="#F8F8F8"/><path d="M11.744 19.091l10.91 5.128c.366.172.84.253 1.317.253s.951-.081 1.318-.253l10.909-5.128c.711-.335 1.383-1.637.078-1.637h-24.61c-1.304 0-.632 1.302.078 1.637zm24.784 2.804l-11.24 5.125c-.494.227-.84.253-1.317.253s-.823-.026-1.318-.253c-.494-.226-10.375-4.758-11.182-5.126-.568-.26-.562.044-.562.278v9.282c0 .535.823 1.273 1.455 1.273h23.272c.632 0 1.455-.738 1.455-1.273v-9.28c0-.235.006-.539-.563-.279z" fill="#201D54"/></svg>