<svg width="26" height="26" fill="none" xmlns="http://www.w3.org/2000/svg"><path d="M25.487 13.136a2.428 2.428 0 00-1.637-.93 2.381 2.381 0 00-1.78.493l-5.79 4.49a3.206 3.206 0 01-1.98.686h-1.395a5.663 5.663 0 001.72-4.063.813.813 0 00-.813-.812H4.875v-.813a.813.813 0 00-.813-.812H.812a.813.813 0 00-.812.813v11.374c0 .449.364.813.812.813h3.25a.813.813 0 00.813-.813v-.812h10.822c.886 0 1.765-.302 2.48-.853l6.872-5.345c.521-.403.853-.983.932-1.636a2.384 2.384 0 00-.494-1.78zM3.25 22.75H1.625V13H3.25v9.75zm21.12-8.033a.818.818 0 01-.316.55l-6.87 5.344a2.45 2.45 0 01-1.487.514H4.875v-6.5h8.043a4.07 4.07 0 01-3.98 3.25.813.813 0 000 1.625H14.3a4.848 4.848 0 002.985-1.032l5.79-4.49a.746.746 0 01.578-.16.823.823 0 01.554.32c.13.164.187.37.162.58zM22.75 1.625H4.874c-.897 0-1.625.73-1.625 1.625v5.688a.813.813 0 001.625 0V6.419A4.075 4.075 0 008.042 3.25H19.58a4.075 4.075 0 003.168 3.167v4.146a.813.813 0 001.625 0V3.25c0-.895-.728-1.625-1.625-1.625zm-17.875 3.1V3.25H6.35a2.43 2.43 0 01-1.475 1.476zm17.874 0a2.431 2.431 0 01-1.475-1.475h1.475v1.476z" fill="#201D54"/><path d="M13.812 6.5a2.44 2.44 0 00-2.437 2.437 2.44 2.44 0 002.437 2.438 2.44 2.44 0 002.438-2.438A2.44 2.44 0 0013.812 6.5zm0 3.25A.814.814 0 0113 8.937a.813.813 0 011.625 0 .814.814 0 01-.813.813z" fill="#201D54"/></svg>