<svg width="26" height="26" fill="none" xmlns="http://www.w3.org/2000/svg"><g clip-path="url(#clip0)" fill="#201D54"><path d="M16.52 9.75H8.397a.812.812 0 01-.793-.636L6.519 4.24a.813.813 0 01.793-.989h9.885l.705-2.647a.811.811 0 111.57.42l-2.167 8.125a.812.812 0 01-.784.602zM9.049 8.125h6.849l.867-3.25h-8.44l.723 3.25zM10.833 13a1.083 1.083 0 100-2.167 1.083 1.083 0 000 2.167zm4.334 0a1.083 1.083 0 100-2.167 1.083 1.083 0 000 2.167z"/><path d="M24.104 22.75H1.896A1.898 1.898 0 010 20.854V6.23c0-1.045.85-1.896 1.896-1.896H3.52a.813.813 0 010 1.625H1.896a.27.27 0 00-.271.271v14.625c0 .15.121.27.27.27h22.21a.27.27 0 00.27-.27V6.23a.27.27 0 00-.27-.27h-2.98a.813.813 0 010-1.626h2.98c1.045 0 1.895.85 1.895 1.896v14.625c0 1.046-.85 1.896-1.896 1.896z"/><path d="M25.188 18.958H.813a.813.813 0 010-1.625h24.375a.813.813 0 010 1.625zM16.52 26H9.48a.813.813 0 01-.575-1.387c1.128-1.127 1.37-2.765 1.373-2.78a.812.812 0 011.61.211 7.288 7.288 0 01-.806 2.331H14.9a7.453 7.453 0 01-.808-2.326.813.813 0 011.61-.224c.007.049.251 1.591 1.282 2.694A.813.813 0 0116.521 26z"/></g><defs><clipPath id="clip0"><path fill="#fff" d="M0 0h26v26H0z"/></clipPath></defs></svg>