<svg width="70" height="70" fill="none" xmlns="http://www.w3.org/2000/svg"><g clip-path="url(#clip0)"><path d="M35.761 48.35a28.505 28.505 0 011.77-40.092 2.311 2.311 0 10-3.137-3.395 33.099 33.099 0 00-2.023 46.63l3.784.695-.394-3.838zm5.477-7.011l1.574 15.33a2.312 2.312 0 01-2.717 2.509l-15.157-2.781a2.312 2.312 0 01.834-4.547l12.126 2.224-1.26-12.263a2.31 2.31 0 012.064-2.536 2.311 2.311 0 012.536 2.064z" fill="#fff"/></g><defs><clipPath id="clip0"><path fill="#fff" transform="scale(1 -1) rotate(-47.267 -38.266 -16.745)" d="M0 0h49.312v49.312H0z"/></clipPath></defs></svg>