<svg width="70" height="70" viewBox="0 0 70 70" fill="none" xmlns="http://www.w3.org/2000/svg">
<g clip-path="url(#clip0)">
<path d="M35.7613 48.3503C30.7114 42.784 28.0641 35.4485 28.3956 27.9401C28.727 20.4317 32.0104 13.358 37.5312 8.25828C37.9815 7.84228 38.2481 7.26443 38.2723 6.65186C38.2966 6.03929 38.0765 5.44217 37.6605 4.99186C37.2445 4.54155 36.6667 4.27495 36.0541 4.25069C35.4415 4.22644 34.8444 4.44652 34.3941 4.86252C27.9648 10.7912 24.1431 19.0234 23.7641 27.7607C23.385 36.4981 26.4793 45.0303 32.3711 51.4935L36.1553 52.1879L35.7613 48.3503ZM41.2377 41.3386L42.8118 56.6681C42.8484 57.0251 42.8015 57.3857 42.6746 57.7214C42.5477 58.057 42.3445 58.3586 42.0809 58.6021C41.8173 58.8456 41.5006 59.0244 41.156 59.1243C40.8113 59.2242 40.4481 59.2425 40.0952 59.1778L24.9381 56.3966C24.3351 56.2859 23.8008 55.9403 23.4526 55.4357C23.1045 54.9311 22.971 54.3088 23.0817 53.7059C23.1923 53.1029 23.538 52.5685 24.0426 52.2204C24.5472 51.8722 25.1694 51.7388 25.7724 51.8495L37.8981 54.0744L36.6389 41.8108C36.6078 41.5088 36.6366 41.2037 36.7235 40.9129C36.8104 40.622 36.9538 40.3511 37.1454 40.1157C37.337 39.8803 37.5731 39.6848 37.8402 39.5406C38.1073 39.3964 38.4002 39.3063 38.7022 39.2753C39.312 39.2126 39.9218 39.3948 40.3973 39.7818C40.6327 39.9734 40.8281 40.2095 40.9723 40.4766C41.1165 40.7437 41.2067 41.0366 41.2377 41.3386Z" fill="white"/>
</g>
<defs>
<clipPath id="clip0">
<rect width="49.3124" height="49.3124" fill="white" transform="matrix(0.678577 0.734529 0.734529 -0.678577 0 33.4897)"/>
</clipPath>
</defs>
</svg>
