<svg width="48" height="48" fill="none" xmlns="http://www.w3.org/2000/svg"><circle cx="24" cy="24" r="24" fill="#fff"/><g clip-path="url(#clip0)"><path d="M35.92 12.049A3.57 3.57 0 0033.374 11a3.57 3.57 0 00-2.543 1.049l-5.088 5.087-10.84-1.535a.98.98 0 00-.833.278l-2.782 2.782a.982.982 0 00.33 1.607l7.997 3.193-3.994 4.71-3.022.53a.983.983 0 00-.525 1.66l5.565 5.566a.982.982 0 001.661-.525l.528-3.022 4.708-3.992L27.7 36.38a.981.981 0 001.607.333l2.782-2.782a.982.982 0 00.278-.832l-1.535-10.84 5.118-5.087a3.614 3.614 0 00-.03-5.122zm-1.362 3.737l-5.459 5.427a.983.983 0 00-.28.834l1.535 10.84-1.378 1.38-3.117-7.874a.98.98 0 00-1.548-.388l-6.023 5.107a.981.981 0 00-.332.58l-.264 1.51L14.8 30.31l1.51-.265a.983.983 0 00.58-.332l5.106-6.023a.982.982 0 00-.385-1.547l-7.88-3.147 1.382-1.382 10.84 1.535a.982.982 0 00.833-.277l5.434-5.435a1.62 1.62 0 011.155-.473c.44 0 .85.168 1.156.474.654.653.665 1.683.027 2.348z" fill="#201D54"/></g><defs><clipPath id="clip0"><path fill="#fff" transform="translate(11 11)" d="M0 0h26v26H0z"/></clipPath></defs></svg>