<svg width="26" height="26" viewBox="0 0 26 26" fill="none" xmlns="http://www.w3.org/2000/svg">
<g clip-path="url(#clip0)">
<path d="M24.9192 1.04884C24.2432 0.372531 23.3397 0 22.3753 0C21.4113 0 20.5078 0.372531 19.8318 1.04884L14.7441 6.1362L3.90311 4.60093C3.59705 4.55706 3.28901 4.6605 3.07095 4.87886L0.288496 7.66137C0.055105 7.89476 -0.0453911 8.22997 0.0210308 8.55339C0.0875034 8.87682 0.312058 9.14525 0.618777 9.26768L8.61566 12.461L4.62161 17.1719L1.59987 17.7003C1.23882 17.7635 0.943218 18.0224 0.832566 18.3717C0.721914 18.721 0.815199 19.103 1.07449 19.3619L6.6395 24.9269C6.89844 25.1862 7.28046 25.2789 7.62974 25.1689C7.97937 25.0586 8.2383 24.7626 8.30112 24.4016L8.82914 21.3798L13.5371 17.3884L16.6997 25.379C16.8211 25.6868 17.0899 25.9123 17.4136 25.9794C17.4797 25.9932 17.5465 26 17.6126 26C17.8702 26 18.1207 25.8982 18.3066 25.7123L21.0891 22.9298C21.3075 22.7115 21.4106 22.4034 21.3673 22.0977L19.8324 11.2587L24.9499 6.17129C24.9542 6.16703 24.9584 6.16276 24.9627 6.15819C26.3609 4.7155 26.3419 2.47086 24.9192 1.04884ZM23.558 4.78588L18.0991 10.2128C17.8798 10.4311 17.776 10.7401 17.8192 11.0469L19.3542 21.8878L17.9757 23.2662L14.8593 15.3928C14.7428 15.0981 14.4917 14.8778 14.1846 14.8013C14.1054 14.7813 14.0255 14.7718 13.946 14.7718C13.7159 14.7718 13.4904 14.8527 13.3112 15.0052L7.28828 20.1119C7.11314 20.2602 6.99563 20.4655 6.95602 20.6916L6.69186 22.2017L3.79966 19.3096L5.30975 19.0454C5.53562 19.0058 5.74088 18.8883 5.88946 18.7131L10.9962 12.6898C11.2005 12.4489 11.2764 12.1245 11.2001 11.8178C11.1238 11.511 10.9045 11.26 10.6112 11.1428L2.73123 7.99627L4.11329 6.61421L14.9539 8.14948C15.26 8.19269 15.568 8.08991 15.7861 7.87155L21.2204 2.43745C21.5255 2.13236 21.9357 1.96412 22.3753 1.96412C22.8153 1.96412 23.2255 2.13236 23.5309 2.4378C24.1846 3.09151 24.1961 4.12136 23.558 4.78588Z" fill="#201D54"/>
</g>
<defs>
<clipPath id="clip0">
<rect width="26" height="26" fill="white"/>
</clipPath>
</defs>
</svg>
