<svg width="26" height="26" viewBox="0 0 26 26" fill="none" xmlns="http://www.w3.org/2000/svg">
<path d="M23.5625 5.89063H17.6719V4.0625C17.6723 3.37486 17.4889 2.6996 17.1407 2.10667C16.7924 1.51374 16.2919 1.02469 15.6911 0.690197C15.0903 0.355699 14.411 0.18791 13.7236 0.204209C13.0361 0.220508 12.3655 0.420302 11.7812 0.782897C11.197 0.420302 10.5264 0.220508 9.83893 0.204209C9.15148 0.18791 8.47217 0.355699 7.87137 0.690197C7.27056 1.02469 6.77011 1.51374 6.42185 2.10667C6.07359 2.6996 5.89018 3.37486 5.89062 4.0625V5.89063H1.625C1.46338 5.89063 1.30839 5.95483 1.19411 6.06911C1.07983 6.18339 1.01562 6.33839 1.01562 6.5V25.1875C1.01562 25.3491 1.07983 25.5041 1.19411 25.6184C1.30839 25.7327 1.46338 25.7969 1.625 25.7969H17.0625C17.0858 25.7968 17.109 25.7953 17.1322 25.7926C17.1382 25.7919 17.1441 25.7907 17.1501 25.7899C17.1676 25.7873 17.1848 25.7842 17.2018 25.7803C17.2046 25.7796 17.2075 25.7794 17.2103 25.7787L20.3125 25.0031L23.4147 25.7787C23.7841 25.8818 24.1823 25.572 24.1719 25.1875V6.5C24.1719 6.41998 24.1561 6.34074 24.1255 6.26681C24.0949 6.19287 24.05 6.1257 23.9934 6.06911C23.9368 6.01252 23.8696 5.96764 23.7957 5.93701C23.7218 5.90639 23.6425 5.89063 23.5625 5.89063ZM16.4531 4.0625V5.89063H13.6094V4.0625C13.61 3.18212 13.3082 2.32824 12.7544 1.64384C13.1562 1.46774 13.5956 1.39458 14.0328 1.43096C14.4699 1.46734 14.8912 1.61213 15.2583 1.85222C15.6255 2.09231 15.927 2.42014 16.1356 2.80606C16.3442 3.19198 16.4534 3.62381 16.4531 4.0625ZM11.7812 2.37728C12.1755 2.85029 12.3912 3.44672 12.3906 4.0625V5.89063H11.1719V4.0625C11.1713 3.44672 11.387 2.85029 11.7812 2.37728ZM7.10938 4.0625C7.10915 3.62381 7.21827 3.19198 7.42689 2.80606C7.6355 2.42014 7.93702 2.09231 8.30418 1.85222C8.67134 1.61213 9.09256 1.46734 9.52974 1.43096C9.96692 1.39458 10.4063 1.46774 10.8081 1.64384C10.2543 2.32824 9.95246 3.18212 9.95312 4.0625V5.89063H7.10938V4.0625ZM2.23438 24.5781V7.10938H5.89062V10.5625C5.89062 10.7241 5.95483 10.8791 6.06911 10.9934C6.18339 11.1077 6.33838 11.1719 6.5 11.1719C6.66162 11.1719 6.81661 11.1077 6.93089 10.9934C7.04517 10.8791 7.10938 10.7241 7.10938 10.5625V7.10938H12.3906V10.5625C12.3906 10.7241 12.4548 10.8791 12.5691 10.9934C12.6834 11.1077 12.8384 11.1719 13 11.1719C13.1616 11.1719 13.3166 11.1077 13.4309 10.9934C13.5452 10.8791 13.6094 10.7241 13.6094 10.5625V7.10938H16.4531V24.5781H2.23438ZM22.9531 24.407L20.4603 23.7838C20.3632 23.7596 20.2618 23.7596 20.1647 23.7838L17.6719 24.407V7.10938H19.7031V10.5625C19.7031 10.7241 19.7673 10.8791 19.8816 10.9934C19.9959 11.1077 20.1509 11.1719 20.3125 11.1719C20.4741 11.1719 20.6291 11.1077 20.7434 10.9934C20.8577 10.8791 20.9219 10.7241 20.9219 10.5625V7.10938H22.9531V24.407Z" fill="#201D54"/>
<path d="M20.3125 14.0156C20.1509 14.0156 19.9959 14.0798 19.8816 14.1941C19.7673 14.3084 19.7031 14.4634 19.7031 14.625V21.9375C19.7031 22.0991 19.7673 22.2541 19.8816 22.3684C19.9959 22.4827 20.1509 22.5469 20.3125 22.5469C20.4741 22.5469 20.6291 22.4827 20.7434 22.3684C20.8577 22.2541 20.9219 22.0991 20.9219 21.9375V14.625C20.9219 14.4634 20.8577 14.3084 20.7434 14.1941C20.6291 14.0798 20.4741 14.0156 20.3125 14.0156Z" fill="#201D54"/>
<path d="M13.3816 12.5693L5.25663 20.6943C4.68925 21.2454 5.56767 22.1232 6.11839 21.556L14.2434 13.431C14.3561 13.3164 14.419 13.1619 14.4184 13.0012C14.4177 12.8404 14.3536 12.6864 14.2399 12.5728C14.1262 12.4591 13.9722 12.3949 13.8115 12.3943C13.6507 12.3936 13.4962 12.4565 13.3816 12.5693Z" fill="#201D54"/>
<path d="M12.1875 17.2656C11.7456 17.2656 11.3136 17.3967 10.9461 17.6422C10.5787 17.8877 10.2923 18.2367 10.1232 18.6449C9.95409 19.0532 9.90984 19.5025 9.99606 19.9359C10.0823 20.3693 10.2951 20.7675 10.6076 21.0799C10.92 21.3924 11.3182 21.6052 11.7516 21.6914C12.185 21.7777 12.6343 21.7334 13.0426 21.5643C13.4508 21.3952 13.7998 21.1088 14.0453 20.7414C14.2908 20.3739 14.4219 19.9419 14.4219 19.5C14.4212 18.9076 14.1856 18.3397 13.7667 17.9208C13.3478 17.5019 12.7799 17.2663 12.1875 17.2656ZM12.1875 20.5156C11.9866 20.5156 11.7903 20.4561 11.6233 20.3445C11.4562 20.2329 11.3261 20.0742 11.2492 19.8887C11.1723 19.7031 11.1522 19.4989 11.1914 19.3019C11.2306 19.1049 11.3273 18.9239 11.4693 18.7818C11.6114 18.6398 11.7924 18.5431 11.9894 18.5039C12.1864 18.4647 12.3906 18.4848 12.5762 18.5617C12.7617 18.6386 12.9204 18.7687 13.032 18.9357C13.1436 19.1028 13.2031 19.2991 13.2031 19.5C13.2028 19.7693 13.0957 20.0274 12.9053 20.2178C12.7149 20.4082 12.4568 20.5153 12.1875 20.5156Z" fill="#201D54"/>
<path d="M7.3125 16.8594C7.75442 16.8594 8.18641 16.7283 8.55385 16.4828C8.92129 16.2373 9.20768 15.8883 9.37679 15.4801C9.54591 15.0718 9.59016 14.6225 9.50394 14.1891C9.41773 13.7557 9.20492 13.3575 8.89244 13.0451C8.57996 12.7326 8.18183 12.5198 7.7484 12.4336C7.31498 12.3473 6.86572 12.3916 6.45744 12.5607C6.04916 12.7298 5.7002 13.0162 5.45469 13.3836C5.20917 13.7511 5.07812 14.1831 5.07812 14.625C5.07878 15.2174 5.3144 15.7853 5.73329 16.2042C6.15217 16.6231 6.72011 16.8587 7.3125 16.8594ZM7.3125 13.6094C7.51337 13.6094 7.70973 13.6689 7.87675 13.7805C8.04377 13.8921 8.17394 14.0508 8.25081 14.2363C8.32768 14.4219 8.3478 14.6261 8.30861 14.8231C8.26942 15.0202 8.17269 15.2011 8.03066 15.3432C7.88862 15.4852 7.70765 15.5819 7.51064 15.6211C7.31363 15.6603 7.10942 15.6402 6.92384 15.5633C6.73826 15.4864 6.57964 15.3563 6.46804 15.1893C6.35644 15.0222 6.29687 14.8259 6.29687 14.625C6.29718 14.3557 6.40429 14.0976 6.59469 13.9072C6.78509 13.7168 7.04323 13.6097 7.3125 13.6094Z" fill="#201D54"/>
</svg>
