<svg width="48" height="48" fill="none" xmlns="http://www.w3.org/2000/svg"><circle cx="24" cy="24" r="24" fill="#fff"/><path d="M36.468 24.64a2.526 2.526 0 00-1.7-.965 2.464 2.464 0 00-1.847.513l-6.013 4.662a3.34 3.34 0 01-2.059.712h-1.447a5.88 5.88 0 001.785-4.217.844.844 0 00-.844-.843l-9.28-.002v-.844a.844.844 0 00-.844-.843h-3.375a.844.844 0 00-.844.843v11.812c0 .466.378.844.844.844h3.375a.844.844 0 00.843-.844v-.843h11.239c.918 0 1.83-.314 2.575-.886l7.136-5.55c.54-.417.884-1.02.969-1.696a2.486 2.486 0 00-.513-1.853zm-23.093 9.985h-1.688V24.5h1.688v10.125zm21.932-8.341a.856.856 0 01-.328.572l-7.134 5.548a2.553 2.553 0 01-1.544.533H15.062v-6.75l8.353.002a4.226 4.226 0 01-4.134 3.373.844.844 0 000 1.688h5.569a5.041 5.041 0 003.1-1.072l6.012-4.66a.835.835 0 01.6-.17.855.855 0 01.745.936zM32.78 12.688H14.219a.844.844 0 00-.843.844v6.75a.844.844 0 001.687 0v-5.907h5.063v4.219a.843.843 0 001.313.702L23.5 17.92l2.063 1.375a.84.84 0 00.866.04.84.84 0 00.445-.742v-4.219h5.063v7.594a.844.844 0 001.687 0v-8.437a.844.844 0 00-.843-.844zm-7.593 4.328l-1.22-.811a.85.85 0 00-.937 0l-1.218.811v-2.64h3.375v2.64z" fill="#201D54"/></svg>