<svg width="26" height="26" fill="none" xmlns="http://www.w3.org/2000/svg"><g clip-path="url(#clip0)" fill="#201D54"><path d="M24.104 1.625H1.896a.813.813 0 010-1.625h22.208a.813.813 0 010 1.625z"/><path d="M19.77 13h-1.624a.813.813 0 010-1.625h1.625c.746 0 1.354-.608 1.354-1.354V1.625H4.875v8.396c0 .746.608 1.354 1.354 1.354h1.625a.813.813 0 010 1.625H6.23a2.982 2.982 0 01-2.979-2.98V.814c0-.449.364-.813.813-.813h17.875c.448 0 .812.364.812.813v9.208A2.982 2.982 0 0119.77 13z"/><path d="M8.937 9.75a.813.813 0 01-.574-1.388l2.709-2.708a.809.809 0 01.977-.131l1.379.788 3.083-2.845a.813.813 0 011.103 1.193l-3.52 3.25a.811.811 0 01-.955.109l-1.357-.776-2.27 2.27a.806.806 0 01-.575.238z"/><path d="M17.063 7.583a.813.813 0 01-.813-.812V4.875h-1.896a.813.813 0 010-1.625h2.709c.448 0 .812.364.812.813V6.77a.813.813 0 01-.813.812zm4.604 10.834A2.169 2.169 0 0119.5 16.25a2.17 2.17 0 012.167-2.167c1.195 0 2.166.972 2.166 2.167a2.169 2.169 0 01-2.166 2.167zm0-2.709a.542.542 0 100 1.084.542.542 0 000-1.084zm3.521 8.125a.813.813 0 01-.813-.812v-.542c0-.746-.608-1.354-1.354-1.354h-2.709a.813.813 0 010-1.625h2.709A2.982 2.982 0 0126 22.48v.54a.813.813 0 01-.813.813zM4.333 18.417a2.169 2.169 0 01-2.166-2.167c0-1.195.971-2.167 2.166-2.167A2.17 2.17 0 016.5 16.25a2.169 2.169 0 01-2.167 2.167zm0-2.709a.542.542 0 100 1.084.542.542 0 000-1.084zm-3.52 8.125A.813.813 0 010 23.021v-.542A2.982 2.982 0 012.98 19.5h2.708a.813.813 0 010 1.625h-2.71c-.746 0-1.354.608-1.354 1.354v.542a.813.813 0 01-.813.812zM13 18.958a3.254 3.254 0 01-3.25-3.25 3.254 3.254 0 013.25-3.25 3.254 3.254 0 013.25 3.25 3.254 3.254 0 01-3.25 3.25zm0-4.875c-.896 0-1.625.73-1.625 1.625 0 .896.73 1.625 1.625 1.625.896 0 1.625-.729 1.625-1.625s-.73-1.625-1.625-1.625zM18.146 26a.813.813 0 01-.813-.813v-1.625c0-.746-.607-1.354-1.354-1.354h-5.958c-.747 0-1.354.608-1.354 1.354v1.625a.813.813 0 01-1.625 0v-1.625a2.982 2.982 0 012.979-2.979h5.958a2.982 2.982 0 012.98 2.98v1.624a.813.813 0 01-.813.813z"/></g><defs><clipPath id="clip0"><path fill="#fff" d="M0 0h26v26H0z"/></clipPath></defs></svg>