<svg width="28" height="28" viewBox="0 0 28 28" fill="none" xmlns="http://www.w3.org/2000/svg">
<g clip-path="url(#clip0)">
<path d="M27.7034 17.1472L26.4943 14L27.7016 10.851C27.8358 10.5036 27.7292 10.1081 27.4402 9.87416L24.821 7.75194L24.2913 4.42069C24.2328 4.05438 23.9439 3.76545 23.5776 3.70698L20.2463 3.17728L18.1241 0.558032C17.8902 0.269106 17.4964 0.164198 17.1473 0.296623L14 1.50564L10.8511 0.298342C10.5037 0.164198 10.1099 0.269106 9.87596 0.559751L7.75373 3.179L4.42249 3.7087C4.05617 3.76717 3.76725 4.05609 3.70878 4.42241L3.17908 7.75365L0.559832 9.87588C0.270906 10.1098 0.165999 10.5036 0.298423 10.851L1.50572 14L0.298423 17.1489C0.165999 17.4963 0.270906 17.8901 0.559832 18.124L3.17908 20.2462L3.70878 23.5775C3.76725 23.9438 4.05617 24.2327 4.42249 24.2912L7.75373 24.8209L9.87596 27.4401C10.1116 27.7308 10.5054 27.8374 10.8528 27.7016L14 26.4943L17.149 27.7016C17.2487 27.7394 17.3536 27.7583 17.4568 27.7583C17.7096 27.7583 17.959 27.6465 18.1258 27.4401L20.248 24.8209L23.5793 24.2912C23.9456 24.2327 24.2345 23.9438 24.293 23.5775L24.8227 20.2462L27.4419 18.124C27.7309 17.8901 27.8358 17.4946 27.7034 17.1472ZM24.7677 14.3078L25.8701 17.1799L23.4778 19.1163C23.3127 19.2505 23.2027 19.4397 23.17 19.6495L22.6867 22.6884L19.6478 23.1716C19.438 23.2043 19.2488 23.3144 19.1147 23.4795L17.1817 25.8717L14.3096 24.7693C14.2098 24.7332 14.1049 24.7126 14 24.7126C13.8951 24.7126 13.7902 24.7315 13.6922 24.7693L10.8201 25.8717L8.88364 23.4795C8.7495 23.3144 8.56032 23.2043 8.3505 23.1716L5.31163 22.6884L4.82836 19.6495C4.79569 19.4397 4.68562 19.2505 4.52052 19.1163L2.12829 17.1816L3.23067 14.3095C3.30634 14.11 3.30634 13.8899 3.22895 13.6921L2.12829 10.8183L4.52052 8.88184C4.68562 8.7477 4.79569 8.55852 4.82836 8.3487L5.31163 5.30983L8.3505 4.82656C8.56032 4.79389 8.7495 4.68382 8.88364 4.51872L10.8184 2.1282L13.6905 3.23059C13.8882 3.30626 14.1084 3.30626 14.3062 3.23059L17.1782 2.1282L19.1147 4.52044C19.2488 4.68554 19.438 4.79561 19.6478 4.82828L22.6867 5.31155L23.17 8.35042C23.2027 8.56024 23.3127 8.74942 23.4778 8.88356L25.8701 10.8201L24.7677 13.6921C24.692 13.8899 24.692 14.11 24.7677 14.3078Z" fill="#201D54"/>
<path d="M11.4195 7.12079C9.99722 7.12079 8.8398 8.27821 8.8398 9.70048C8.8398 11.1228 9.99722 12.2802 11.4195 12.2802C12.8418 12.2802 13.9992 11.1228 13.9992 9.70048C13.9992 8.27821 12.8418 7.12079 11.4195 7.12079ZM11.4195 10.5604C10.9448 10.5604 10.5596 10.1751 10.5596 9.70048C10.5596 9.22582 10.9448 8.84058 11.4195 8.84058C11.8942 8.84058 12.2794 9.22582 12.2794 9.70048C12.2794 10.1751 11.8942 10.5604 11.4195 10.5604Z" fill="#201D54"/>
<path d="M16.5789 15.7197C15.1566 15.7197 13.9992 16.8772 13.9992 18.2994C13.9992 19.7217 15.1566 20.8791 16.5789 20.8791C18.0011 20.8791 19.1585 19.7217 19.1585 18.2994C19.1585 16.8772 18.0011 15.7197 16.5789 15.7197ZM16.5789 19.1593C16.1042 19.1593 15.719 18.7741 15.719 18.2994C15.719 17.8248 16.1042 17.4395 16.5789 17.4395C17.0535 17.4395 17.4388 17.8248 17.4388 18.2994C17.4388 18.7741 17.0535 19.1593 16.5789 19.1593Z" fill="#201D54"/>
<path d="M18.7991 7.28247C18.4139 7.0073 17.8756 7.09673 17.6004 7.48196L9.00142 19.5205C8.72453 19.9058 8.81396 20.4441 9.1992 20.7192C9.35054 20.8276 9.52596 20.8792 9.69966 20.8792C9.96795 20.8792 10.2328 20.7536 10.3996 20.5197L18.9986 8.48116C19.2755 8.09421 19.1843 7.55763 18.7991 7.28247Z" fill="#201D54"/>
</g>
<defs>
<clipPath id="clip0">
<rect width="27.52" height="27.52" fill="white" transform="translate(0.240005 0.23999)"/>
</clipPath>
</defs>
</svg>
