<svg width="48" height="48" fill="none" xmlns="http://www.w3.org/2000/svg"><path fill-rule="evenodd" clip-rule="evenodd" d="M0 24C0 10.745 10.745 0 24 0s24 10.745 24 24-10.745 24-24 24S0 37.255 0 24z" fill="#F8F8F8"/><path fill-rule="evenodd" clip-rule="evenodd" d="M24.001 11.2c-3.476 0-3.912.015-5.278.078-1.363.062-2.293.278-3.106.594a6.269 6.269 0 00-2.268 1.476 6.284 6.284 0 00-1.477 2.267c-.318.815-.534 1.745-.595 3.107-.061 1.365-.077 1.802-.077 5.278 0 3.477.015 3.912.077 5.277.063 1.363.279 2.293.595 3.107a6.272 6.272 0 001.476 2.267 6.27 6.27 0 002.267 1.477c.814.317 1.745.533 3.107.595 1.365.062 1.801.078 5.278.078 3.476 0 3.911-.016 5.276-.078 1.363-.062 2.294-.278 3.109-.594a6.264 6.264 0 002.266-1.478 6.284 6.284 0 001.477-2.267c.315-.814.53-1.745.595-3.107.061-1.365.077-1.8.077-5.277 0-3.476-.016-3.912-.077-5.278-.064-1.362-.28-2.292-.595-3.106a6.282 6.282 0 00-1.477-2.268 6.256 6.256 0 00-2.267-1.476c-.816-.316-1.747-.532-3.11-.595-1.365-.062-1.8-.077-5.277-.077h.004zm-1.148 2.307H24c3.418 0 3.823.012 5.172.074 1.248.056 1.926.265 2.377.44.597.232 1.023.51 1.47.958.449.448.726.874.959 1.472.175.45.384 1.128.44 2.376.062 1.349.075 1.754.075 5.17s-.013 3.822-.074 5.171c-.058 1.248-.266 1.925-.441 2.376a3.958 3.958 0 01-.958 1.47 3.958 3.958 0 01-1.471.958c-.45.176-1.129.384-2.377.44-1.349.062-1.754.076-5.172.076-3.418 0-3.823-.014-5.172-.075-1.248-.058-1.926-.266-2.377-.441a3.964 3.964 0 01-1.472-.958 3.968 3.968 0 01-.958-1.471c-.175-.45-.384-1.128-.44-2.376-.062-1.35-.074-1.755-.074-5.173s.012-3.821.073-5.17c.057-1.249.266-1.926.441-2.377.232-.597.51-1.024.958-1.472a3.972 3.972 0 011.472-.958c.451-.176 1.129-.384 2.377-.441 1.18-.054 1.638-.07 4.024-.072v.003zm7.98 2.125a1.536 1.536 0 100 3.072 1.536 1.536 0 000-3.072zm-6.832 1.795a6.574 6.574 0 100 13.147 6.574 6.574 0 000-13.147zm0 2.307a4.267 4.267 0 110 8.533 4.267 4.267 0 010-8.533z" fill="#201D54"/></svg>