<svg width="28" height="28" viewBox="0 0 28 28" fill="none" xmlns="http://www.w3.org/2000/svg">
<g clip-path="url(#clip0)">
<path d="M15.2166 23.5689C14.7029 23.5689 14.1892 23.374 13.7993 22.9841C13.7982 22.9841 13.7982 22.983 13.7982 22.983L7.64631 16.8322C7.48463 16.6706 7.39404 16.4516 7.39404 16.2222L7.40666 10.5577C7.4078 10.0841 7.79079 9.70112 8.26436 9.69997L13.9278 9.68736C14.1399 9.67016 14.3761 9.7768 14.5378 9.93963L20.6885 16.0904C21.4694 16.8735 21.4694 18.1452 20.6896 18.9272L16.6339 22.983C16.2429 23.374 15.7303 23.5689 15.2166 23.5689ZM15.0136 21.7664C15.1272 21.8776 15.3095 21.8764 15.4196 21.7652L19.473 17.7117C19.5843 17.5994 19.5843 17.4182 19.4719 17.3058L13.5757 11.4085L9.12436 11.4177L9.11519 15.869L15.0136 21.7664Z" fill="#201D54"/>
<path d="M11.7067 16.0066C10.6002 16.0066 9.70007 15.1065 9.70007 14C9.70007 12.8934 10.6002 11.9933 11.7067 11.9933C12.8133 11.9933 13.7134 12.8934 13.7134 14C13.7134 15.1065 12.8133 16.0066 11.7067 16.0066ZM11.7067 13.7133C11.5485 13.7133 11.4201 13.8417 11.4201 14C11.4201 14.3153 11.9934 14.3153 11.9934 14C11.9934 13.8417 11.865 13.7133 11.7067 13.7133Z" fill="#201D54"/>
<path d="M24.6067 26.6133H3.39338C1.65389 26.6133 0.240051 25.1995 0.240051 23.46V4.53999C0.240051 2.8005 1.65389 1.38666 3.39338 1.38666H24.6067C26.3462 1.38666 27.7601 2.8005 27.7601 4.53999V23.46C27.7601 25.1995 26.3462 26.6133 24.6067 26.6133ZM3.39338 3.10666C2.60333 3.10666 1.96005 3.74994 1.96005 4.53999V23.46C1.96005 24.25 2.60333 24.8933 3.39338 24.8933H24.6067C25.3968 24.8933 26.0401 24.25 26.0401 23.46V4.53999C26.0401 3.74994 25.3968 3.10666 24.6067 3.10666H3.39338Z" fill="#201D54"/>
<path d="M26.9001 7.11996H1.10005C0.625331 7.11996 0.240051 6.73468 0.240051 6.25996C0.240051 5.78524 0.625331 5.39996 1.10005 5.39996H26.9001C27.3748 5.39996 27.7601 5.78524 27.7601 6.25996C27.7601 6.73468 27.3748 7.11996 26.9001 7.11996Z" fill="#201D54"/>
</g>
<defs>
<clipPath id="clip0">
<rect width="27.52" height="27.52" fill="white" transform="translate(0.240051 0.23999)"/>
</clipPath>
</defs>
</svg>
