<svg width="48" height="48" fill="none" xmlns="http://www.w3.org/2000/svg"><circle cx="24" cy="24" r="24" fill="#fff"/><g clip-path="url(#clip0)" fill="#201D54"><path d="M25.217 33.569a1.998 1.998 0 01-1.418-.585v-.001l-6.153-6.15a.861.861 0 01-.252-.61l.013-5.665a.86.86 0 01.857-.858l5.664-.013c.212-.017.448.09.61.253l6.15 6.15c.781.784.781 2.055.002 2.837l-4.056 4.056a1.997 1.997 0 01-1.417.586zm-.203-1.803a.29.29 0 00.406 0l4.053-4.054a.287.287 0 00-.001-.406l-5.896-5.898-4.452.01-.009 4.451 5.899 5.897z"/><path d="M21.707 26.007c-1.107 0-2.007-.9-2.007-2.007 0-1.107.9-2.007 2.007-2.007 1.106 0 2.006.9 2.006 2.007 0 1.107-.9 2.007-2.006 2.007zm0-2.294a.287.287 0 00-.287.287c0 .315.573.315.573 0a.287.287 0 00-.286-.287z"/><path d="M34.607 36.613H13.393a3.156 3.156 0 01-3.153-3.153V14.54a3.156 3.156 0 013.153-3.153h21.214a3.156 3.156 0 013.153 3.153v18.92a3.156 3.156 0 01-3.153 3.153zM13.393 13.107c-.79 0-1.433.643-1.433 1.433v18.92c0 .79.643 1.433 1.433 1.433h21.214c.79 0 1.433-.643 1.433-1.433V14.54c0-.79-.643-1.433-1.433-1.433H13.393z"/><path d="M36.9 17.12H11.1a.86.86 0 010-1.72h25.8a.86.86 0 010 1.72z"/></g><defs><clipPath id="clip0"><path fill="#fff" transform="translate(10.24 10.24)" d="M0 0h27.52v27.52H0z"/></clipPath></defs></svg>