<svg width="92" height="92" viewBox="0 0 92 92" fill="none" xmlns="http://www.w3.org/2000/svg">
<g filter="url(#filter0_d)">
<path d="M46 61C59.2548 61 70 50.2548 70 37C70 23.7452 59.2548 13 46 13C32.7452 13 22 23.7452 22 37C22 50.2548 32.7452 61 46 61Z" fill="#039BE5"/>
<path d="M32.982 36.4799L56.122 27.5579C57.196 27.1699 58.134 27.8199 57.786 29.4439L57.788 29.4419L53.848 48.0039C53.556 49.3199 52.774 49.6399 51.68 49.0199L45.68 44.5979L42.786 47.3859C42.466 47.7059 42.196 47.9759 41.576 47.9759L42.002 41.8699L53.122 31.8239C53.606 31.3979 53.014 31.1579 52.376 31.5819L38.634 40.2339L32.71 38.3859C31.424 37.9779 31.396 37.0999 32.982 36.4799Z" fill="white"/>
</g>
<defs>
<filter id="filter0_d" x="0" y="0" width="92" height="92" filterUnits="userSpaceOnUse" color-interpolation-filters="sRGB">
<feFlood flood-opacity="0" result="BackgroundImageFix"/>
<feColorMatrix in="SourceAlpha" type="matrix" values="0 0 0 0 0 0 0 0 0 0 0 0 0 0 0 0 0 0 127 0"/>
<feOffset dy="9"/>
<feGaussianBlur stdDeviation="11"/>
<feColorMatrix type="matrix" values="0 0 0 0 0 0 0 0 0 0 0 0 0 0 0 0 0 0 0.25 0"/>
<feBlend mode="normal" in2="BackgroundImageFix" result="effect1_dropShadow"/>
<feBlend mode="normal" in="SourceGraphic" in2="effect1_dropShadow" result="shape"/>
</filter>
</defs>
</svg>
