<svg width="26" height="26" viewBox="0 0 26 26" fill="none" xmlns="http://www.w3.org/2000/svg">
<path d="M25.1935 10.6689H25.2383C25.659 10.6689 26 10.3278 26 9.90717V4.27832C26 3.85765 25.659 3.5166 25.2383 3.5166H0.761719C0.341047 3.5166 0 3.85765 0 4.27832V9.90717C0 10.3278 0.341047 10.6689 0.761719 10.6689C1.65872 10.6689 2.38845 11.3987 2.38845 12.2956V13.7044C2.38845 14.6014 1.65867 15.3311 0.761719 15.3311C0.341047 15.3311 0 15.6722 0 16.0928V21.7217C0 22.1424 0.341047 22.4834 0.761719 22.4834H25.2383C25.659 22.4834 26 22.1424 26 21.7217V16.0928C26 15.6722 25.659 15.3311 25.2383 15.3311H25.1935C24.2965 15.3311 23.5668 14.6013 23.5668 13.7044V12.2956C23.5668 11.3986 24.2965 10.6689 25.1935 10.6689ZM1.52344 16.7615C2.89357 16.4199 3.91188 15.1788 3.91188 13.7044V12.2956C3.91188 10.8212 2.89357 9.58009 1.52344 9.23853V5.04004H5.88854V20.96H1.52344V16.7615ZM24.4766 16.7723V20.96H7.41198V5.04004H24.4766V9.22777C23.0839 9.55322 22.0433 10.8052 22.0433 12.2957V13.7044C22.0433 15.1948 23.0839 16.4468 24.4766 16.7723Z" fill="#201D54"/>
<path d="M19.3332 7.20605H10.8605C10.4398 7.20605 10.0987 7.5471 10.0987 7.96777C10.0987 8.38845 10.4398 8.72949 10.8605 8.72949H19.3332C19.7538 8.72949 20.0949 8.38845 20.0949 7.96777C20.0949 7.5471 19.7538 7.20605 19.3332 7.20605Z" fill="#201D54"/>
<path d="M10.8605 12.0842H16.6475C17.0682 12.0842 17.4093 11.7432 17.4093 11.3225C17.4093 10.9018 17.0682 10.5608 16.6475 10.5608H10.8605C10.4398 10.5608 10.0987 10.9018 10.0987 11.3225C10.0987 11.7432 10.4398 12.0842 10.8605 12.0842Z" fill="#201D54"/>
<path d="M18.1862 17.2705H10.8605C10.4398 17.2705 10.0987 17.6116 10.0987 18.0322C10.0987 18.4529 10.4398 18.7939 10.8605 18.7939H18.1862C18.6069 18.7939 18.9479 18.4529 18.9479 18.0322C18.9479 17.6116 18.6069 17.2705 18.1862 17.2705Z" fill="#201D54"/>
<path d="M10.8605 15.4392H16.6475C17.0682 15.4392 17.4093 15.0982 17.4093 14.6775C17.4093 14.2568 17.0682 13.9158 16.6475 13.9158H10.8605C10.4398 13.9158 10.0987 14.2568 10.0987 14.6775C10.0987 15.0982 10.4398 15.4392 10.8605 15.4392Z" fill="#201D54"/>
</svg>
