<svg width="48" height="48" fill="none" xmlns="http://www.w3.org/2000/svg"><circle cx="24" cy="24" r="24" fill="#fff"/><path d="M36.194 21.669h.044a.762.762 0 00.762-.762v-5.629a.762.762 0 00-.762-.761H11.762a.762.762 0 00-.762.761v5.63c0 .42.341.76.762.76.897 0 1.626.73 1.626 1.628v1.408c0 .897-.73 1.627-1.626 1.627a.762.762 0 00-.762.762v5.629c0 .42.341.761.762.761h24.476a.76.76 0 00.762-.761v-5.63a.762.762 0 00-.762-.76h-.044c-.898 0-1.627-.73-1.627-1.628v-1.408c0-.897.73-1.627 1.627-1.627zm-23.67 6.093a3.156 3.156 0 002.388-3.058v-1.408a3.156 3.156 0 00-2.389-3.058V16.04h4.366v15.92h-4.366v-4.198zm22.953.01v4.188H18.412V16.04h17.065v4.188a3.156 3.156 0 00-2.434 3.068v1.408c0 1.49 1.04 2.743 2.434 3.068z" fill="#201D54"/><path d="M30.333 18.206H21.86a.762.762 0 100 1.524h8.473a.762.762 0 000-1.524zm-8.473 4.878h5.788a.762.762 0 100-1.523H21.86a.762.762 0 100 1.523zm7.326 5.186H21.86a.762.762 0 000 1.524h7.326a.762.762 0 100-1.524zm-7.326-1.83h5.788a.762.762 0 100-1.524H21.86a.762.762 0 100 1.523z" fill="#201D54"/></svg>