<svg width="48" height="48" fill="none" xmlns="http://www.w3.org/2000/svg"><path fill-rule="evenodd" clip-rule="evenodd" d="M0 24C0 10.745 10.745 0 24 0s24 10.745 24 24-10.745 24-24 24S0 37.255 0 24z" fill="#F8F8F8"/><g clip-path="url(#clip0)" fill="#201D54"><path d="M29.695 26.095l-.01.085c-2.474-1.233-2.732-1.397-3.052-.918-.221.332-.867 1.084-1.062 1.307-.197.22-.393.236-.727.084-.337-.168-1.42-.523-2.703-1.67-.999-.895-1.67-1.991-1.867-2.329-.33-.57.36-.65.987-1.838.113-.236.055-.422-.028-.59-.084-.168-.756-1.822-1.037-2.481-.27-.657-.548-.574-.756-.574-.648-.056-1.122-.047-1.54.387-1.815 1.996-1.357 4.054.197 6.244 3.053 3.996 4.68 4.731 7.654 5.753.803.255 1.536.22 2.115.136.646-.102 1.988-.811 2.268-1.604.287-.793.287-1.452.203-1.603-.084-.152-.304-.237-.642-.389z"/><path d="M33.085 13.879c-8.65-8.362-22.966-2.298-22.971 9.5 0 2.357.617 4.657 1.794 6.687L10 37l7.127-1.859C26.02 39.944 36.996 33.565 37 23.385a13.27 13.27 0 00-3.932-9.463l.017-.043zm1.667 9.469c-.007 8.587-9.433 13.95-16.888 9.567l-.405-.241-4.219 1.097 1.13-4.1-.268-.423c-4.64-7.385.69-17.038 9.479-17.038 2.986 0 5.788 1.165 7.899 3.274a11.012 11.012 0 013.272 7.864z"/></g><defs><clipPath id="clip0"><path fill="#fff" transform="translate(10 10)" d="M0 0h27v27H0z"/></clipPath></defs></svg>