<svg width="27" height="27" viewBox="0 0 27 27" fill="none" xmlns="http://www.w3.org/2000/svg">
<g clip-path="url(#clip0)">
<path d="M19.6953 16.0954L19.6852 16.1798C17.2113 14.9468 16.9526 14.7826 16.6331 15.2618C16.4115 15.5937 15.7657 16.3463 15.5711 16.5691C15.3742 16.7884 15.1785 16.8053 14.8443 16.6534C14.5068 16.4847 13.4235 16.1303 12.141 14.9828C11.142 14.0884 10.4715 12.9916 10.2735 12.6541C9.94385 12.0848 10.6335 12.0038 11.2612 10.8158C11.3737 10.5796 11.3163 10.3939 11.2331 10.2263C11.1487 10.0576 10.4771 8.40382 10.1958 7.74457C9.92585 7.08757 9.64797 7.17082 9.43985 7.17082C8.79185 7.11457 8.31822 7.12357 7.90085 7.55782C6.0851 9.55357 6.54297 11.6123 8.0966 13.8016C11.1498 17.7976 12.7766 18.5333 15.7511 19.5548C16.5543 19.8102 17.2867 19.7742 17.8661 19.6909C18.5118 19.5886 19.854 18.8798 20.1341 18.0867C20.421 17.2936 20.421 16.6354 20.3366 16.4836C20.2533 16.3317 20.0328 16.2473 19.6953 16.0954Z" fill="#201D54"/>
<path d="M23.085 3.87866C14.4349 -4.48347 0.11925 1.58141 0.113625 13.3782C0.113625 15.7362 0.73125 18.0357 1.908 20.0663L0 26.9985L7.12687 25.14C16.02 29.9438 26.9955 23.565 27 13.3849C27 9.81191 25.605 6.44928 23.0681 3.92253L23.085 3.87866ZM24.7523 13.3478C24.7455 21.9349 15.3191 27.2978 7.86375 22.9148L7.45875 22.674L3.24 23.7709L4.37063 19.6703L4.10175 19.2484C-0.53775 11.8628 4.7925 2.21028 13.581 2.21028C16.5667 2.21028 19.3691 3.37466 21.4796 5.48403C23.589 7.57541 24.7523 10.3778 24.7523 13.3478Z" fill="#201D54"/>
</g>
<defs>
<clipPath id="clip0">
<rect width="27" height="27" fill="white"/>
</clipPath>
</defs>
</svg>
